<svg width="32" height="32" viewBox="0 0 32 32" fill="none" xmlns="http://www.w3.org/2000/svg">
  <!-- Background circle with gradient -->
  <defs>
    <linearGradient id="bgGradient" x1="0%" y1="0%" x2="100%" y2="100%">
      <stop offset="0%" style="stop-color:#3B82F6;stop-opacity:1" />
      <stop offset="100%" style="stop-color:#1D4ED8;stop-opacity:1" />
    </linearGradient>
    <linearGradient id="heartGradient" x1="0%" y1="0%" x2="100%" y2="100%">
      <stop offset="0%" style="stop-color:#EF4444;stop-opacity:1" />
      <stop offset="100%" style="stop-color:#DC2626;stop-opacity:1" />
    </linearGradient>
  </defs>
  
  <!-- Background circle -->
  <circle cx="16" cy="16" r="15" fill="url(#bgGradient)" stroke="#1E40AF" stroke-width="1"/>
  
  <!-- Heart shape -->
  <path d="M16 8C14.5 6.5 12 6.5 10.5 8C9 9.5 9 12 10.5 13.5L16 19L21.5 13.5C23 12 23 9.5 21.5 8C20 6.5 17.5 6.5 16 8Z" fill="url(#heartGradient)"/>
  
  <!-- Paw print -->
  <g transform="translate(12, 18)">
    <!-- Main pad -->
    <ellipse cx="4" cy="2" rx="2.5" ry="1.8" fill="white" opacity="0.9"/>
    <!-- Toe pads -->
    <circle cx="1.5" cy="0.5" r="0.8" fill="white" opacity="0.9"/>
    <circle cx="6.5" cy="0.5" r="0.8" fill="white" opacity="0.9"/>
    <circle cx="2.5" cy="-1" r="0.6" fill="white" opacity="0.9"/>
    <circle cx="5.5" cy="-1" r="0.6" fill="white" opacity="0.9"/>
  </g>
  
  <!-- Small decorative elements -->
  <circle cx="8" cy="8" r="1" fill="white" opacity="0.3"/>
  <circle cx="24" cy="8" r="1" fill="white" opacity="0.3"/>
  <circle cx="8" cy="24" r="1" fill="white" opacity="0.3"/>
  <circle cx="24" cy="24" r="1" fill="white" opacity="0.3"/>
</svg> 