<svg width="512" height="512" viewBox="0 0 512 512" fill="none" xmlns="http://www.w3.org/2000/svg">
  <!-- Background circle with gradient -->
  <defs>
    <linearGradient id="bgGradient" x1="0%" y1="0%" x2="100%" y2="100%">
      <stop offset="0%" style="stop-color:#3B82F6;stop-opacity:1" />
      <stop offset="100%" style="stop-color:#1D4ED8;stop-opacity:1" />
    </linearGradient>
    <linearGradient id="heartGradient" x1="0%" y1="0%" x2="100%" y2="100%">
      <stop offset="0%" style="stop-color:#EF4444;stop-opacity:1" />
      <stop offset="100%" style="stop-color:#DC2626;stop-opacity:1" />
    </linearGradient>
    <filter id="shadow" x="-50%" y="-50%" width="200%" height="200%">
      <feDropShadow dx="0" dy="4" stdDeviation="8" flood-color="#000000" flood-opacity="0.2"/>
    </filter>
  </defs>
  
  <!-- Background circle with shadow -->
  <circle cx="256" cy="256" r="240" fill="url(#bgGradient)" stroke="#1E40AF" stroke-width="8" filter="url(#shadow)"/>
  
  <!-- Heart shape -->
  <path d="M256 128C224 96 192 96 168 128C144 160 144 224 168 256L256 384L344 256C368 224 368 160 344 128C320 96 288 96 256 128Z" fill="url(#heartGradient)"/>
  
  <!-- Paw print -->
  <g transform="translate(192, 288)">
    <!-- Main pad -->
    <ellipse cx="64" cy="32" rx="40" ry="28" fill="white" opacity="0.95"/>
    <!-- Toe pads -->
    <circle cx="24" cy="8" r="12" fill="white" opacity="0.95"/>
    <circle cx="104" cy="8" r="12" fill="white" opacity="0.95"/>
    <circle cx="40" cy="-16" r="10" fill="white" opacity="0.95"/>
    <circle cx="88" cy="-16" r="10" fill="white" opacity="0.95"/>
  </g>
  
  <!-- Small decorative elements -->
  <circle cx="128" cy="128" r="16" fill="white" opacity="0.3"/>
  <circle cx="384" cy="128" r="16" fill="white" opacity="0.3"/>
  <circle cx="128" cy="384" r="16" fill="white" opacity="0.3"/>
  <circle cx="384" cy="384" r="16" fill="white" opacity="0.3"/>
  
  <!-- Additional decorative elements -->
  <circle cx="256" cy="80" r="8" fill="white" opacity="0.4"/>
  <circle cx="256" cy="432" r="8" fill="white" opacity="0.4"/>
  <circle cx="80" cy="256" r="8" fill="white" opacity="0.4"/>
  <circle cx="432" cy="256" r="8" fill="white" opacity="0.4"/>
</svg> 